<svg width="238" height="53" viewBox="0 0 238 53" fill="none" xmlns="http://www.w3.org/2000/svg">
<path id="Vector" d="M155.727 0.759766C161.684 0.835137 167.608 1.69024 173.353 3.30434L172.601 6.1882C167.091 4.64007 161.41 3.82122 155.697 3.75157L155.727 0.759766ZM138.04 3.08844L138.792 5.97229C133.28 7.52493 127.965 9.73505 122.956 12.5574L121.557 9.93567C126.767 6.97842 132.3 4.66446 138.04 3.04217V3.08844ZM189.942 9.76603C193.146 11.3082 195.958 12.8504 198.394 14.2692C200.617 15.6086 202.941 16.7637 205.343 17.7236L204.501 20.5921C201.894 19.5709 199.379 18.3223 196.981 16.86C194.559 15.5183 191.807 13.9761 188.664 12.4186L189.942 9.76603ZM221.24 24.4783C224.654 25.5116 227.647 26.5602 230.264 27.5627C232.679 28.5146 235.163 29.2725 237.693 29.8296L237.317 32.7906C234.588 32.2237 231.911 31.4188 229.316 30.3848C226.714 29.4595 223.751 28.4108 220.397 27.4084L221.24 24.4783ZM106.863 20.0986L108.683 22.3501C107.72 23.1521 106.743 23.9848 105.765 24.8484C102.126 28.0716 98.5461 31.0171 95.1321 33.7313L93.3574 31.3564C96.7414 28.7193 100.261 25.7583 103.885 22.5815C104.863 21.7178 105.931 20.808 106.863 20.0523V20.0986ZM2.72843 26.807C8.02411 26.9434 13.1644 28.67 17.5124 31.7728L16.0085 34.3019C10.3686 30.6316 5.63107 29.3207 0.457429 29.9222L0.0664062 26.9766C0.948811 26.8508 1.83771 26.7787 2.72843 26.7607V26.807ZM79.0397 41.3496L80.5436 43.9405C75.4325 47.0656 69.9742 49.5509 64.2858 51.3429L63.4736 48.4745C68.9233 46.7309 74.1493 44.3233 79.0397 41.3034V41.3496ZM31.6347 42.3983C36.1402 45.8804 41.3273 48.3215 46.8398 49.554L46.2983 52.4995C40.3747 51.1692 34.8025 48.5385 29.9653 44.7887L31.6347 42.3983Z" fill="#F63D68"/>
</svg>
